<svg width="25" height="25" viewBox="0 0 25 25" fill="none" xmlns="http://www.w3.org/2000/svg">
<path fill-rule="evenodd" clip-rule="evenodd" d="M12.504 7.29168C15.3805 7.29168 17.7124 9.62353 17.7124 12.5H7.29567C7.29567 9.62353 9.62752 7.29168 12.504 7.29168ZM5.21234 12.6192V12.5C5.21234 8.47294 8.47693 5.20834 12.504 5.20834C16.5311 5.20834 19.7957 8.47294 19.7957 12.5V12.6192C19.9936 12.6892 20.1811 12.7891 20.3512 12.9167L23.129 15C24.7307 16.2013 23.8811 18.75 21.879 18.75H3.129C1.12689 18.75 0.277313 16.2013 1.879 15L4.65677 12.9167C4.82691 12.7891 5.0144 12.6892 5.21234 12.6192ZM5.90678 14.5833L3.129 16.6667H21.879L19.1012 14.5833H5.90678Z" fill="#002C04"/>
</svg>
