<svg width="60" height="50" viewBox="0 0 60 50" fill="none" xmlns="http://www.w3.org/2000/svg">
<path d="M55.6043 10.429H54.513L58.5423 6.39905C59.8378 5.10373 59.8378 3.00537 58.5423 1.71032C57.2478 0.415002 55.1487 0.415002 53.8539 1.71032L47.5714 7.99294C47.4203 7.97918 47.2744 7.94712 47.1196 7.94712C45.2357 7.94712 43.5962 8.94268 42.6643 10.4288H17.0288C16.0966 8.94268 14.4558 7.94712 12.5734 7.94712C12.4185 7.94712 12.2722 7.97918 12.1216 7.99294L5.83923 1.71032C4.54418 0.415002 2.44516 0.415002 1.15089 1.71032C-0.144555 3.00537 -0.144555 5.10373 1.15089 6.39905L5.18002 10.429H4.39579C1.96783 10.429 6.10352e-05 12.3974 6.10352e-05 14.8238V17.9011C6.10352e-05 20.1938 1.7635 22.0552 4.00401 22.2567L7.30253 44.1602C7.30253 46.9767 9.58614 49.2614 12.4033 49.2614H47.5968C50.4141 49.2614 52.6972 46.9767 52.6972 44.1602L55.9964 22.2567C58.2369 22.0552 60.0001 20.1938 60.0001 17.9011V14.8238C60.0007 12.3974 58.032 10.429 55.6043 10.429ZM20.3743 44.1588H12.5034L11.3818 35.5493H20.3743V44.1588ZM20.3743 32.2006H10.8721L9.85136 23.5901H20.3745V32.2006H20.3743ZM34.0071 44.1588H26.0341V35.5487H34.0071V44.1588ZM34.0071 32.2006H26.0341V23.591H34.0071V32.2006ZM46.5941 44.1588H40.305V35.5487H48.1235L46.5941 44.1588ZM48.7889 32.2006H40.305V23.591H50.319L48.7889 32.2006Z" fill="#002C04"/>
</svg>
