<svg width="24" height="24" viewBox="0 0 24 24" fill="none" xmlns="http://www.w3.org/2000/svg">
<g clip-path="url(#clip0_17_585)">
<path d="M23.7129 18.1866L12.1888 10.363C12.1753 10.3541 12.1576 10.3461 12.1364 10.3385C12.1068 10.3279 12.0814 10.1524 12.0814 9.94346C12.0814 9.73455 12.259 9.49688 12.4553 9.37001C13.1112 8.94627 13.551 8.19985 13.551 7.38873C13.551 5.75083 12.4396 4.65002 10.7852 4.65002C9.51231 4.65002 8.44872 5.49244 8.13704 6.74592C8.05288 7.08593 8.2601 7.42975 8.60012 7.51433C8.94097 7.59975 9.28395 7.39126 9.36852 7.05125C9.53684 6.37334 10.1056 5.9183 10.7852 5.9183C11.7368 5.9183 12.2823 6.45412 12.2823 7.3883C12.2823 7.90043 11.8615 8.38888 11.3633 8.4557C11.0483 8.49757 10.8127 8.76611 10.8127 9.08413V9.89103C10.8127 10.1249 10.7683 10.3228 10.7146 10.3389C10.6757 10.3507 10.644 10.3643 10.6228 10.3795L0.261795 18.2031C0.0393496 18.3643 -0.0536884 18.651 0.0308916 18.9119C0.115472 19.1737 0.359062 19.3505 0.63437 19.3505H23.3657C23.6461 19.3505 23.8934 19.1661 23.9738 18.898C24.0542 18.6298 23.948 18.3401 23.7129 18.1866ZM20.8169 18.0826H3.01234C2.77847 18.0826 2.75056 17.9836 2.94932 17.861L10.4101 13.2548C10.9777 12.8429 11.9127 12.8209 12.4984 13.2044L20.8701 17.8771C21.074 17.9913 21.0499 18.0826 20.8169 18.0826Z" fill="#002C04"/>
</g>
<defs>
<clipPath id="clip0_17_585">
<rect width="24" height="24" fill="white"/>
</clipPath>
</defs>
</svg>
