<svg width="19" height="19" viewBox="0 0 19 19" fill="none" xmlns="http://www.w3.org/2000/svg">
<g clip-path="url(#clip0_122_1054)">
<path d="M8.5 16.5L2.5 9L1.5 7.5V5.5L2 4.5L3 3L6 2.5L8 4L9 6L9.5 5.5L10.5 3.5L13 2.5H15L17 4V6.5L16 9.5L9.5 17L8.5 16.5Z" fill="#FCABE5" stroke="#FCABE5"/>
<path fill-rule="evenodd" clip-rule="evenodd" d="M9.28503 16.9332C5.13596 12.7671 1.17849 9.18844 1.17849 6.10092C1.17849 3.24957 3.43948 2.19658 5.07037 2.19658C6.03726 2.19658 8.12948 2.5734 9.28503 5.54885C10.4568 2.56437 12.5748 2.2041 13.5049 2.2041C15.3767 2.2041 17.3916 3.42332 17.3916 6.10092C17.3916 9.16137 13.6066 12.5881 9.28503 16.9332ZM13.5049 1.45196C11.8813 1.45196 10.2283 2.23569 9.28503 3.88738C8.33804 2.22817 6.68947 1.44444 5.07037 1.44444C2.72463 1.44444 0.441528 3.08937 0.441528 6.10092C0.441528 9.60663 4.54713 13.1928 9.28503 17.9915C14.0237 13.1928 18.1285 9.60663 18.1285 6.10092C18.1285 3.0841 15.8477 1.45196 13.5049 1.45196Z" fill="black"/>
</g>
<defs>
<clipPath id="clip0_122_1054">
<rect width="17.687" height="18.0513" fill="white" transform="translate(0.441528 0.692307)"/>
</clipPath>
</defs>
</svg>
