<svg width="48" height="44" viewBox="0 0 48 44" fill="none" xmlns="http://www.w3.org/2000/svg">
<path fill-rule="evenodd" clip-rule="evenodd" d="M24.0001 41.186C12.7401 30.108 2.00006 20.592 2.00006 12.382C2.00006 4.8 8.13606 2 12.5621 2C15.1861 2 20.8641 3.002 24.0001 10.914C27.1801 2.978 32.9281 2.02 35.4521 2.02C40.5321 2.02 46.0001 5.262 46.0001 12.382C46.0001 20.52 35.7281 29.632 24.0001 41.186ZM35.4521 0.02C31.0461 0.02 26.5601 2.104 24.0001 6.496C21.4301 2.084 16.9561 0 12.5621 0C6.19606 0 6.10352e-05 4.374 6.10352e-05 12.382C6.10352e-05 21.704 11.1421 31.24 24.0001 44C36.8601 31.24 48.0001 21.704 48.0001 12.382C48.0001 4.36 41.8101 0.02 35.4521 0.02Z" fill="#002C04"/>
</svg>
