<svg width="16" height="16" viewBox="0 0 16 16" fill="none" xmlns="http://www.w3.org/2000/svg">
<g clip-path="url(#clip0_187_20)">
<path fill-rule="evenodd" clip-rule="evenodd" d="M8 14.3953C4.24667 10.7027 0.666667 7.53066 0.666667 4.79399C0.666667 2.26666 2.712 1.33332 4.18733 1.33332C5.062 1.33332 6.95467 1.66732 8 4.30466C9.06 1.65932 10.976 1.33999 11.8173 1.33999C13.5107 1.33999 15.3333 2.42066 15.3333 4.79399C15.3333 7.50666 11.9093 10.544 8 14.3953ZM11.8173 0.673323C10.3487 0.673323 8.85333 1.36799 8 2.83199C7.14333 1.36132 5.652 0.666656 4.18733 0.666656C2.06533 0.666656 0 2.12466 0 4.79399C0 7.90132 3.714 11.08 8 15.3333C12.2867 11.08 16 7.90132 16 4.79399C16 2.11999 13.9367 0.673323 11.8173 0.673323Z" fill="black"/>
</g>
<defs>
<clipPath id="clip0_187_20">
<rect width="16" height="16" fill="white"/>
</clipPath>
</defs>
</svg>
