<svg width="23" height="23" viewBox="0 0 23 23" fill="none" xmlns="http://www.w3.org/2000/svg">
<path d="M19.253 10.7487C17.1599 10.2436 13.9061 8.14947 11.9073 6.43602C11.6322 6.19995 11.4111 5.96829 11.1973 5.74413C10.7919 5.3189 10.4087 4.91716 9.83645 4.70253C9.60052 4.61407 9.35134 4.56915 9.09605 4.56915H9.09587C8.2468 4.56915 7.58173 5.06716 7.26216 5.30668C6.41224 5.94282 6.15524 6.64086 6.10538 7.16743C6.02407 7.1739 5.94141 7.17763 5.85826 7.17763C5.0211 7.17763 4.71563 6.83065 4.52718 6.49149C4.03511 5.60568 3.1634 5.0553 2.25207 5.0553C1.13293 5.0553 0 5.92067 0 7.57497V17.0375V18.4309H1.39334H21.5389H22.9323V17.0375C22.9323 16.9739 22.9442 16.8235 22.9547 16.6909C23.0517 15.4656 23.3466 11.7366 19.253 10.7487ZM17.315 12.368C17.5585 12.1795 17.8613 12.0186 18.2324 11.8975C18.4702 11.9774 18.7032 12.0496 18.926 12.1033C20.9075 12.5816 21.4613 13.8834 21.5817 15.0635H15.6246L16.0468 15.0434L16.1393 15.04V15.039L16.1386 14.9924C16.1369 14.7975 16.1716 14.0481 16.525 13.3449C16.7013 12.9922 16.9514 12.6503 17.315 12.368ZM8.09631 6.42276C8.3295 6.24829 8.71013 5.96249 9.0961 5.96249C9.1801 5.96249 9.2641 5.97611 9.34712 6.00706C9.81143 6.18122 10.202 6.80882 11.0004 7.49361C12.5454 8.81822 14.8474 10.4072 16.9262 11.3719C16.8408 11.4277 16.752 11.4818 16.6741 11.5423C16.2874 11.8427 15.9962 12.1907 15.7758 12.5465C12.9702 11.1889 10.8395 9.91526 9.38746 8.956C8.58722 8.42736 7.9907 7.994 7.59629 7.69464C7.57365 7.67766 7.55833 7.66539 7.53708 7.64904C7.42666 7.33068 7.46867 6.89256 8.09631 6.42276ZM1.39334 7.57497C1.39334 6.81156 1.79422 6.44864 2.25211 6.44864C2.63004 6.44864 3.04678 6.69557 3.30921 7.16811C3.9224 8.27193 4.93835 8.57097 5.85831 8.57097C6.22433 8.57097 6.57405 8.52336 6.8783 8.46078C7.97844 9.30441 10.783 11.2931 15.3399 13.4964C15.3328 13.5185 15.3239 13.5416 15.3171 13.5634C15.1141 14.2223 15.0943 14.7758 15.0937 14.9925C15.0937 15.0248 15.0943 15.0469 15.0947 15.0636H6.85961C6.66995 14.3108 6.22909 13.5662 5.56268 12.9487C4.65512 12.1095 3.31667 11.519 1.63965 11.5207C1.55888 11.5207 1.47568 11.5247 1.39339 11.5275C1.39334 9.64182 1.39334 7.91646 1.39334 7.57497ZM1.39334 12.5724C1.47618 12.5693 1.55919 12.5656 1.6396 12.5656C3.07328 12.5673 4.13712 13.0575 4.85408 13.7168C5.29849 14.1247 5.60243 14.6022 5.76932 15.0635H1.39334C1.39334 14.3287 1.39334 13.4579 1.39334 12.5724ZM21.5389 17.0375H1.39334C1.39334 17.0375 1.39334 16.68 1.39334 16.1085H21.5984C21.5777 16.4983 21.5389 16.8266 21.5389 17.0375Z" fill="#002C04"/>
</svg>
